<svg width="106" height="88" viewBox="0 0 106 88" fill="none" xmlns="http://www.w3.org/2000/svg">
<path d="M56.0515 7.032H50.6755C46.7715 7.096 43.4435 8.344 40.6915 10.776C37.8755 13.208 36.1795 16.344 35.6035 20.184C35.6035 20.184 35.6035 20.472 35.6035 21.048C35.5395 21.56 35.5075 22.296 35.5075 23.256V34.008C35.6355 38.296 37.1075 41.88 39.9235 44.76C42.8035 47.576 46.3875 49.048 50.6755 49.176H55.9555C57.1715 49.176 58.3235 49.048 59.4115 48.792V60.792C59.3475 62.52 58.7715 63.96 57.6835 65.112C56.5315 66.264 55.0915 66.872 53.3635 66.936C51.6355 66.872 50.1955 66.264 49.0435 65.112C47.8915 63.96 47.2835 62.52 47.2195 60.792L35.6035 62.808C36.1795 66.648 37.8755 69.784 40.6915 72.216C43.4435 74.648 46.7715 75.896 50.6755 75.96H56.0515C60.3395 75.832 63.8915 74.36 66.7075 71.544C69.5875 68.664 71.0595 65.08 71.1235 60.792V22.2C71.1235 20.152 70.7395 18.2 69.9715 16.344C69.2035 14.552 68.1155 12.92 66.7075 11.448C65.2995 10.04 63.6675 8.952 61.8115 8.184C59.9555 7.416 58.0355 7.032 56.0515 7.032ZM59.4115 22.2V34.008C59.3475 35.736 58.7395 37.176 57.5875 38.328C56.4355 39.48 55.0275 40.088 53.3635 40.152C51.6355 40.088 50.1955 39.48 49.0435 38.328C47.8915 37.176 47.2835 35.736 47.2195 34.008V22.2C47.2835 20.472 47.8915 19.032 49.0435 17.88C50.1955 16.728 51.6355 16.12 53.3635 16.056C55.0915 16.12 56.5315 16.728 57.6835 17.88C58.7715 19.032 59.3475 20.472 59.4115 22.2Z" fill="black"/>
</svg>
