<svg width="106" height="88" viewBox="0 0 106 88" fill="none" xmlns="http://www.w3.org/2000/svg">
<path d="M56.3395 33.816H50.9635C49.8115 33.816 48.6595 33.944 47.5075 34.2V22.2C47.5715 20.472 48.1795 19.032 49.3315 17.88C50.4835 16.728 51.9235 16.12 53.6515 16.056C55.3795 16.12 56.8195 16.728 57.9715 17.88C59.0595 19.032 59.6355 20.472 59.6995 22.2L71.3155 20.184C70.7395 16.344 69.0755 13.208 66.3235 10.776C63.5075 8.344 60.1795 7.096 56.3395 7.032H50.9635C46.6755 7.16 43.0915 8.632 40.2115 11.448C37.3955 14.328 35.9235 17.912 35.7955 22.2V60.792C35.9235 65.08 37.3955 68.664 40.2115 71.544C43.0915 74.36 46.6755 75.832 50.9635 75.96H56.3395C60.1795 75.896 63.5075 74.648 66.3235 72.216C69.0755 69.784 70.7395 66.648 71.3155 62.808C71.3155 62.808 71.3475 62.52 71.4115 61.944C71.4115 61.432 71.4115 60.696 71.4115 59.736V48.888C71.4115 46.904 71.0275 44.984 70.2595 43.128C69.4915 41.272 68.4035 39.64 66.9955 38.232C65.5875 36.824 63.9555 35.736 62.0995 34.968C60.2435 34.2 58.3235 33.816 56.3395 33.816ZM59.6995 60.792C59.6355 62.52 59.0595 63.96 57.9715 65.112C56.8195 66.264 55.3795 66.872 53.6515 66.936C51.9235 66.872 50.4835 66.264 49.3315 65.112C48.1795 63.96 47.5715 62.52 47.5075 60.792V48.888C47.5715 47.16 48.1795 45.752 49.3315 44.664C50.4835 43.512 51.9235 42.904 53.6515 42.84C55.3795 42.904 56.8195 43.512 57.9715 44.664C59.0595 45.752 59.6355 47.16 59.6995 48.888V60.792Z" fill="black"/>
</svg>
