<svg width="106" height="88" viewBox="0 0 106 88" fill="none" xmlns="http://www.w3.org/2000/svg">
<path d="M56.239 31.032H50.863C49.711 31.032 48.591 31.16 47.503 31.416V17.112H68.239L69.775 8.088H35.887V44.28L47.503 46.2C47.503 44.472 48.079 43.032 49.231 41.88C50.383 40.728 51.823 40.152 53.551 40.152C55.279 40.152 56.719 40.728 57.871 41.88C59.023 43.032 59.631 44.472 59.695 46.2V60.792C59.631 62.52 59.023 63.96 57.871 65.112C56.719 66.264 55.279 66.872 53.551 66.936C51.823 66.872 50.383 66.264 49.231 65.112C48.079 63.96 47.503 62.52 47.503 60.792L35.887 62.808C36.463 66.648 38.127 69.784 40.879 72.216C43.695 74.648 47.023 75.896 50.863 75.96H56.239C60.143 75.896 63.471 74.648 66.223 72.216C69.039 69.784 70.735 66.648 71.311 62.808L71.407 46.2C71.407 44.152 71.023 42.2 70.255 40.344C69.487 38.552 68.399 36.92 66.991 35.448C65.519 34.04 63.887 32.952 62.095 32.184C60.239 31.416 58.287 31.032 56.239 31.032Z" fill="black"/>
</svg>
