<svg width="106" height="88" viewBox="0 0 106 88" fill="none" xmlns="http://www.w3.org/2000/svg">
<path d="M64.274 38.328C66.194 36.6 67.666 34.584 68.69 32.28C69.778 29.976 70.322 27.512 70.322 24.888C70.322 22.52 69.874 20.248 68.978 18.072C68.082 15.896 66.77 13.976 65.042 12.312C63.378 10.584 61.458 9.272 59.282 8.376C57.106 7.48 54.802 7.032 52.37 7.032H49.682C45.842 7.096 42.514 8.344 39.698 10.776C36.946 13.208 35.282 16.344 34.706 20.184L46.322 22.2C46.322 20.472 46.898 19.032 48.05 17.88C49.202 16.728 50.642 16.12 52.37 16.056C54.226 16.12 55.794 16.984 57.074 18.648C58.29 20.312 58.93 22.392 58.994 24.888C58.93 27.448 58.29 29.56 57.074 31.224C55.794 32.888 54.226 33.752 52.37 33.816H46.322V42.84H52.37C54.226 42.904 55.794 43.768 57.074 45.432C58.29 47.096 58.93 49.176 58.994 51.672V58.008C58.93 60.568 58.29 62.68 57.074 64.344C55.794 66.008 54.226 66.872 52.37 66.936C50.642 66.872 49.202 66.264 48.05 65.112C46.898 63.96 46.322 62.52 46.322 60.792L34.706 62.808C35.282 66.648 36.946 69.784 39.698 72.216C42.514 74.648 45.842 75.896 49.682 75.96H52.37C57.49 75.832 61.714 74.072 65.042 70.68C68.434 67.352 70.194 63.128 70.322 58.008V51.768C70.322 49.208 69.778 46.744 68.69 44.376C67.666 42.072 66.194 40.056 64.274 38.328Z" fill="black"/>
</svg>
