<svg width="106" height="88" viewBox="0 0 106 88" fill="none" xmlns="http://www.w3.org/2000/svg">
<path d="M71.2686 26.616V22.2C71.1406 17.912 69.6686 14.328 66.8526 11.448C63.9726 8.632 60.3886 7.16 56.1006 7.032H50.8206C46.5326 7.16 42.9486 8.632 40.0686 11.448C37.2526 14.328 35.7806 17.912 35.6526 22.2V26.616C35.6526 27.576 35.6846 28.312 35.7486 28.824C35.7486 29.336 35.7486 29.624 35.7486 29.688C35.9406 31.288 36.4206 32.824 37.1886 34.296C37.8926 35.768 38.8206 37.112 39.9726 38.328C38.5646 39.736 37.5086 41.368 36.8046 43.224C36.0366 45.016 35.6526 46.904 35.6526 48.888V59.736C35.6526 60.696 35.6846 61.432 35.7486 61.944C35.7486 62.456 35.7486 62.744 35.7486 62.808C36.3246 66.648 37.9886 69.784 40.7406 72.216C43.5566 74.648 46.8846 75.896 50.7246 75.96H56.1006C60.0046 75.896 63.3326 74.648 66.0846 72.216C68.9006 69.784 70.5966 66.648 71.1726 62.808C71.1726 62.808 71.1726 62.52 71.1726 61.944C71.2366 61.432 71.2686 60.696 71.2686 59.736V48.888C71.2686 46.904 70.8846 45.016 70.1166 43.224C69.4126 41.368 68.3566 39.736 66.9486 38.328C68.1006 37.112 69.0286 35.768 69.7326 34.296C70.4366 32.824 70.9166 31.288 71.1726 29.688C71.1726 29.624 71.1726 29.336 71.1726 28.824C71.2366 28.312 71.2686 27.576 71.2686 26.616ZM59.5566 60.792C59.4926 62.52 58.8846 63.96 57.7326 65.112C56.5806 66.264 55.1406 66.872 53.4126 66.936C51.6846 66.872 50.2446 66.264 49.0926 65.112C48.0046 63.96 47.4286 62.52 47.3646 60.792V48.888C47.4286 47.16 48.0366 45.752 49.1886 44.664C50.3406 43.512 51.7806 42.904 53.5086 42.84C55.1726 42.904 56.5806 43.512 57.7326 44.664C58.8846 45.752 59.4926 47.16 59.5566 48.888V60.792ZM59.5566 27.672C59.4926 29.4 58.8846 30.84 57.7326 31.992C56.5806 33.144 55.1406 33.752 53.4126 33.816C51.6846 33.752 50.2446 33.144 49.0926 31.992C48.0046 30.84 47.4286 29.4 47.3646 27.672V22.2C47.4286 20.472 48.0366 19.032 49.1886 17.88C50.3406 16.728 51.7806 16.12 53.5086 16.056C55.2366 16.12 56.6446 16.728 57.7326 17.88C58.8846 19.032 59.4926 20.472 59.5566 22.2V27.672Z" fill="black"/>
</svg>
