<svg width="106" height="88" viewBox="0 0 106 88" fill="none" xmlns="http://www.w3.org/2000/svg">
<path d="M24.8024 8.088L23.3624 17.112H26.5304V74.904H38.1464V8.088H24.8024ZM83.1749 26.616V22.2C83.0469 17.912 81.5749 14.328 78.7589 11.448C75.8789 8.632 72.2949 7.16 68.0069 7.032H62.7269C58.4389 7.16 54.8549 8.632 51.9749 11.448C49.1589 14.328 47.6869 17.912 47.5589 22.2V26.616C47.5589 27.576 47.5909 28.312 47.6549 28.824C47.6549 29.336 47.6549 29.624 47.6549 29.688C47.8469 31.288 48.3269 32.824 49.0949 34.296C49.7989 35.768 50.7269 37.112 51.8789 38.328C50.4709 39.736 49.4149 41.368 48.7109 43.224C47.9429 45.016 47.5589 46.904 47.5589 48.888V59.736C47.5589 60.696 47.5909 61.432 47.6549 61.944C47.6549 62.456 47.6549 62.744 47.6549 62.808C48.2309 66.648 49.8949 69.784 52.6469 72.216C55.4629 74.648 58.7909 75.896 62.6309 75.96H68.0069C71.9109 75.896 75.2389 74.648 77.9909 72.216C80.8069 69.784 82.5029 66.648 83.0789 62.808C83.0789 62.808 83.0789 62.52 83.0789 61.944C83.1429 61.432 83.1749 60.696 83.1749 59.736V48.888C83.1749 46.904 82.7909 45.016 82.0229 43.224C81.3189 41.368 80.2629 39.736 78.8549 38.328C80.0069 37.112 80.9349 35.768 81.6389 34.296C82.3429 32.824 82.8229 31.288 83.0789 29.688C83.0789 29.624 83.0789 29.336 83.0789 28.824C83.1429 28.312 83.1749 27.576 83.1749 26.616ZM71.4629 60.792C71.3989 62.52 70.7909 63.96 69.6389 65.112C68.4869 66.264 67.0469 66.872 65.3189 66.936C63.5909 66.872 62.1509 66.264 60.9989 65.112C59.9109 63.96 59.3349 62.52 59.2709 60.792V48.888C59.3349 47.16 59.9429 45.752 61.0949 44.664C62.2469 43.512 63.6869 42.904 65.4149 42.84C67.0789 42.904 68.4869 43.512 69.6389 44.664C70.7909 45.752 71.3989 47.16 71.4629 48.888V60.792ZM71.4629 27.672C71.3989 29.4 70.7909 30.84 69.6389 31.992C68.4869 33.144 67.0469 33.752 65.3189 33.816C63.5909 33.752 62.1509 33.144 60.9989 31.992C59.9109 30.84 59.3349 29.4 59.2709 27.672V22.2C59.3349 20.472 59.9429 19.032 61.0949 17.88C62.2469 16.728 63.6869 16.12 65.4149 16.056C67.1429 16.12 68.5509 16.728 69.6389 17.88C70.7909 19.032 71.3989 20.472 71.4629 22.2V27.672Z" fill="black"/>
</svg>
