<svg width="106" height="88" viewBox="0 0 106 88" fill="none" xmlns="http://www.w3.org/2000/svg">
<path d="M25.0368 8.088L23.5968 17.112H26.7648V74.904H38.3808V8.088H25.0368ZM68.1453 31.032H62.7693C61.6173 31.032 60.4973 31.16 59.4093 31.416V17.112H80.1453L81.6813 8.088H47.7933V44.28L59.4093 46.2C59.4093 44.472 59.9853 43.032 61.1373 41.88C62.2893 40.728 63.7293 40.152 65.4573 40.152C67.1853 40.152 68.6253 40.728 69.7773 41.88C70.9293 43.032 71.5373 44.472 71.6013 46.2V60.792C71.5373 62.52 70.9293 63.96 69.7773 65.112C68.6253 66.264 67.1853 66.872 65.4573 66.936C63.7293 66.872 62.2893 66.264 61.1373 65.112C59.9853 63.96 59.4093 62.52 59.4093 60.792L47.7933 62.808C48.3693 66.648 50.0333 69.784 52.7853 72.216C55.6013 74.648 58.9293 75.896 62.7693 75.96H68.1453C72.0493 75.896 75.3773 74.648 78.1293 72.216C80.9453 69.784 82.6413 66.648 83.2173 62.808L83.3133 46.2C83.3133 44.152 82.9293 42.2 82.1613 40.344C81.3933 38.552 80.3053 36.92 78.8973 35.448C77.4253 34.04 75.7933 32.952 74.0013 32.184C72.1453 31.416 70.1933 31.032 68.1453 31.032Z" fill="black"/>
</svg>
