<svg width="106" height="88" viewBox="0 0 106 88" fill="none" xmlns="http://www.w3.org/2000/svg">
<path d="M24.5836 8.088L23.1436 17.112H26.3116V74.904H37.9276V8.088H24.5836ZM58.7641 55.32C58.7641 54.488 58.9241 53.688 59.2441 52.92C59.5641 52.216 60.0121 51.576 60.5881 51C61.1641 50.424 61.8041 49.976 62.5081 49.656C63.2761 49.336 64.0761 49.176 64.9081 49.176H67.5001C71.7881 49.048 75.3721 47.576 78.2521 44.76C81.0681 41.88 82.5401 38.296 82.6681 34.008V23.256C82.6681 22.296 82.6361 21.56 82.5721 21.048C82.5721 20.536 82.5721 20.248 82.5721 20.184C81.9961 16.344 80.3321 13.208 77.5801 10.776C74.7641 8.344 71.4361 7.096 67.5961 7.032H62.2201C58.3161 7.096 54.9881 8.344 52.2361 10.776C49.4201 13.208 47.7241 16.344 47.1481 20.184L58.7641 22.2C58.8281 20.472 59.4361 19.032 60.5881 17.88C61.7401 16.728 63.1801 16.12 64.9081 16.056C66.6361 16.12 68.0761 16.728 69.2281 17.88C70.3801 18.968 70.9561 20.376 70.9561 22.104V22.2V34.008C70.8921 35.736 70.2841 37.176 69.1321 38.328C67.9801 39.48 66.5401 40.088 64.8121 40.152H62.2201C60.1721 40.152 58.2201 40.536 56.3641 41.304C54.5721 42.072 52.9401 43.16 51.4681 44.568C50.0601 46.04 48.9721 47.672 48.2041 49.464C47.4361 51.32 47.0521 53.272 47.0521 55.32V74.904H80.9401L79.4041 65.88H58.7641V55.32Z" fill="black"/>
</svg>
