<svg width="106" height="88" viewBox="0 0 106 88" fill="none" xmlns="http://www.w3.org/2000/svg">
<path d="M24.5836 8.088L23.1436 17.112H26.3116V74.904H37.9276V8.088H24.5836ZM64.9081 7.032C59.8521 7.16 55.7241 8.952 52.5241 12.408C49.2601 15.864 47.5641 20.12 47.4361 25.176V58.488C47.5641 63.544 49.2601 67.672 52.5241 70.872C55.7241 74.136 59.8521 75.832 64.9081 75.96C69.9641 75.832 74.0921 74.104 77.2921 70.776C80.5561 67.384 82.2521 63.16 82.3801 58.104V24.888C82.2521 19.832 80.5561 15.608 77.2921 12.216C74.0921 8.888 69.9641 7.16 64.9081 7.032ZM71.0521 60.792C70.9881 62.52 70.3801 63.96 69.2281 65.112C68.0761 66.264 66.6361 66.872 64.9081 66.936C63.1801 66.872 61.7401 66.264 60.5881 65.112C59.4361 63.96 58.8281 62.52 58.7641 60.792V22.2C58.8281 20.472 59.4361 19.032 60.5881 17.88C61.7401 16.728 63.1801 16.12 64.9081 16.056C66.6361 16.12 68.0761 16.728 69.2281 17.88C70.3801 19.032 70.9881 20.472 71.0521 22.2V60.792Z" fill="black"/>
</svg>
