<svg width="106" height="88" viewBox="0 0 106 88" fill="none" xmlns="http://www.w3.org/2000/svg">
<path opacity="0.88" d="M24.8493 8.088L23.4093 17.112H26.5773V74.904H38.1933V8.088H24.8493ZM67.9578 7.032H62.5818C58.6778 7.096 55.3498 8.344 52.5978 10.776C49.7818 13.208 48.0858 16.344 47.5098 20.184C47.5098 20.184 47.5098 20.472 47.5098 21.048C47.4458 21.56 47.4138 22.296 47.4138 23.256V34.008C47.5418 38.296 49.0138 41.88 51.8298 44.76C54.7098 47.576 58.2938 49.048 62.5818 49.176H67.8618C69.0778 49.176 70.2298 49.048 71.3177 48.792V60.792C71.2538 62.52 70.6778 63.96 69.5898 65.112C68.4378 66.264 66.9978 66.872 65.2698 66.936C63.5418 66.872 62.1018 66.264 60.9498 65.112C59.7978 63.96 59.1898 62.52 59.1258 60.792L47.5098 62.808C48.0858 66.648 49.7818 69.784 52.5978 72.216C55.3498 74.648 58.6778 75.896 62.5818 75.96H67.9578C72.2458 75.832 75.7978 74.36 78.6138 71.544C81.4938 68.664 82.9658 65.08 83.0298 60.792V22.2C83.0298 20.152 82.6458 18.2 81.8778 16.344C81.1098 14.552 80.0218 12.92 78.6138 11.448C77.2058 10.04 75.5738 8.952 73.7178 8.184C71.8618 7.416 69.9418 7.032 67.9578 7.032ZM71.3177 22.2V34.008C71.2538 35.736 70.6458 37.176 69.4938 38.328C68.3418 39.48 66.9338 40.088 65.2698 40.152C63.5418 40.088 62.1018 39.48 60.9498 38.328C59.7978 37.176 59.1898 35.736 59.1258 34.008V22.2C59.1898 20.472 59.7978 19.032 60.9498 17.88C62.1018 16.728 63.5418 16.12 65.2698 16.056C66.9978 16.12 68.4378 16.728 69.5898 17.88C70.6778 19.032 71.2538 20.472 71.3177 22.2Z" fill="black"/>
</svg>
