<svg width="106" height="88" viewBox="0 0 106 88" fill="none" xmlns="http://www.w3.org/2000/svg">
<path d="M25.2798 55.32C25.2798 54.488 25.4398 53.688 25.7598 52.92C26.0798 52.216 26.5278 51.576 27.1038 51C27.6798 50.424 28.3198 49.976 29.0238 49.656C29.7918 49.336 30.5918 49.176 31.4238 49.176H34.0157C38.3038 49.048 41.8878 47.576 44.7678 44.76C47.5838 41.88 49.0558 38.296 49.1838 34.008V23.256C49.1838 22.296 49.1518 21.56 49.0878 21.048C49.0878 20.536 49.0878 20.248 49.0878 20.184C48.5118 16.344 46.8478 13.208 44.0958 10.776C41.2798 8.344 37.9518 7.096 34.1118 7.032H28.7358C24.8318 7.096 21.5038 8.344 18.7518 10.776C15.9358 13.208 14.2398 16.344 13.6638 20.184L25.2798 22.2C25.3438 20.472 25.9518 19.032 27.1038 17.88C28.2558 16.728 29.6958 16.12 31.4238 16.056C33.1518 16.12 34.5918 16.728 35.7438 17.88C36.8958 18.968 37.4718 20.376 37.4718 22.104V22.2V34.008C37.4078 35.736 36.7998 37.176 35.6478 38.328C34.4958 39.48 33.0558 40.088 31.3278 40.152H28.7358C26.6878 40.152 24.7358 40.536 22.8798 41.304C21.0878 42.072 19.4558 43.16 17.9838 44.568C16.5758 46.04 15.4878 47.672 14.7198 49.464C13.9518 51.32 13.5678 53.272 13.5678 55.32V74.904H47.4558L45.9198 65.88H25.2798V55.32ZM75.58 7.032C70.524 7.16 66.396 8.952 63.196 12.408C59.932 15.864 58.236 20.12 58.108 25.176V58.488C58.236 63.544 59.932 67.672 63.196 70.872C66.396 74.136 70.524 75.832 75.58 75.96C80.636 75.832 84.764 74.104 87.964 70.776C91.228 67.384 92.924 63.16 93.052 58.104V24.888C92.924 19.832 91.228 15.608 87.964 12.216C84.764 8.888 80.636 7.16 75.58 7.032ZM81.724 60.792C81.66 62.52 81.052 63.96 79.9 65.112C78.748 66.264 77.308 66.872 75.58 66.936C73.852 66.872 72.412 66.264 71.26 65.112C70.108 63.96 69.5 62.52 69.436 60.792V22.2C69.5 20.472 70.108 19.032 71.26 17.88C72.412 16.728 73.852 16.12 75.58 16.056C77.308 16.12 78.748 16.728 79.9 17.88C81.052 19.032 81.66 20.472 81.724 22.2V60.792Z" fill="black"/>
</svg>
