<svg width="106" height="88" viewBox="0 0 106 88" fill="none" xmlns="http://www.w3.org/2000/svg">
<path d="M26.0766 55.32C26.0766 54.488 26.2366 53.688 26.5566 52.92C26.8766 52.216 27.3246 51.576 27.9006 51C28.4766 50.424 29.1166 49.976 29.8206 49.656C30.5886 49.336 31.3886 49.176 32.2206 49.176H34.8126C39.1006 49.048 42.6846 47.576 45.5646 44.76C48.3806 41.88 49.8526 38.296 49.9806 34.008V23.256C49.9806 22.296 49.9486 21.56 49.8846 21.048C49.8846 20.536 49.8846 20.248 49.8846 20.184C49.3086 16.344 47.6446 13.208 44.8926 10.776C42.0766 8.344 38.7486 7.096 34.9086 7.032H29.5326C25.6286 7.096 22.3006 8.344 19.5486 10.776C16.7326 13.208 15.0366 16.344 14.4606 20.184L26.0766 22.2C26.1406 20.472 26.7486 19.032 27.9006 17.88C29.0526 16.728 30.4926 16.12 32.2206 16.056C33.9486 16.12 35.3886 16.728 36.5406 17.88C37.6926 18.968 38.2686 20.376 38.2686 22.104V22.2V34.008C38.2046 35.736 37.5966 37.176 36.4446 38.328C35.2926 39.48 33.8526 40.088 32.1246 40.152H29.5326C27.4846 40.152 25.5326 40.536 23.6766 41.304C21.8846 42.072 20.2526 43.16 18.7806 44.568C17.3726 46.04 16.2846 47.672 15.5166 49.464C14.7486 51.32 14.3646 53.272 14.3646 55.32V74.904H48.2526L46.7166 65.88H26.0766V55.32ZM59.0969 8.088L60.6329 17.112H80.0249L70.3289 74.904H82.0409L93.2729 8.088H59.0969Z" fill="black"/>
</svg>
