<svg width="106" height="88" viewBox="0 0 106 88" fill="none" xmlns="http://www.w3.org/2000/svg">
<path d="M52.3678 38.328C54.2878 36.6 55.7598 34.584 56.7838 32.28C57.8718 29.976 58.4158 27.512 58.4158 24.888C58.4158 22.52 57.9678 20.248 57.0718 18.072C56.1758 15.896 54.8638 13.976 53.1358 12.312C51.4718 10.584 49.5518 9.272 47.3758 8.376C45.1998 7.48 42.8958 7.032 40.4638 7.032H37.7758C33.9358 7.096 30.6078 8.344 27.7918 10.776C25.0398 13.208 23.3758 16.344 22.7998 20.184L34.4158 22.2C34.4158 20.472 34.9918 19.032 36.1438 17.88C37.2958 16.728 38.7358 16.12 40.4638 16.056C42.3198 16.12 43.8878 16.984 45.1678 18.648C46.3838 20.312 47.0238 22.392 47.0878 24.888C47.0238 27.448 46.3838 29.56 45.1678 31.224C43.8878 32.888 42.3198 33.752 40.4638 33.816H34.4158V42.84H40.4638C42.3198 42.904 43.8878 43.768 45.1678 45.432C46.3838 47.096 47.0238 49.176 47.0878 51.672V58.008C47.0238 60.568 46.3838 62.68 45.1678 64.344C43.8878 66.008 42.3198 66.872 40.4638 66.936C38.7358 66.872 37.2958 66.264 36.1438 65.112C34.9918 63.96 34.4158 62.52 34.4158 60.792L22.7998 62.808C23.3758 66.648 25.0398 69.784 27.7918 72.216C30.6078 74.648 33.9358 75.896 37.7758 75.96H40.4638C45.5838 75.832 49.8078 74.072 53.1358 70.68C56.5278 67.352 58.2878 63.128 58.4158 58.008V51.768C58.4158 49.208 57.8718 46.744 56.7838 44.376C55.7598 42.072 54.2878 40.056 52.3678 38.328ZM68.4118 8.088L66.9718 17.112H70.1398V74.904H81.7558V8.088H68.4118Z" fill="black"/>
</svg>
