<svg width="106" height="88" viewBox="0 0 106 88" fill="none" xmlns="http://www.w3.org/2000/svg">
<path d="M42.149 38.328C44.069 36.6 45.541 34.584 46.565 32.28C47.653 29.976 48.197 27.512 48.197 24.888C48.197 22.52 47.749 20.248 46.853 18.072C45.957 15.896 44.645 13.976 42.917 12.312C41.253 10.584 39.333 9.272 37.157 8.376C34.981 7.48 32.677 7.032 30.245 7.032H27.557C23.717 7.096 20.389 8.344 17.573 10.776C14.821 13.208 13.157 16.344 12.581 20.184L24.197 22.2C24.197 20.472 24.773 19.032 25.925 17.88C27.077 16.728 28.517 16.12 30.245 16.056C32.101 16.12 33.669 16.984 34.949 18.648C36.165 20.312 36.805 22.392 36.869 24.888C36.805 27.448 36.165 29.56 34.949 31.224C33.669 32.888 32.101 33.752 30.245 33.816H24.197V42.84H30.245C32.101 42.904 33.669 43.768 34.949 45.432C36.165 47.096 36.805 49.176 36.869 51.672V58.008C36.805 60.568 36.165 62.68 34.949 64.344C33.669 66.008 32.101 66.872 30.245 66.936C28.517 66.872 27.077 66.264 25.925 65.112C24.773 63.96 24.197 62.52 24.197 60.792L12.581 62.808C13.157 66.648 14.821 69.784 17.573 72.216C20.389 74.648 23.717 75.896 27.557 75.96H30.245C35.365 75.832 39.589 74.072 42.917 70.68C46.309 67.352 48.069 63.128 48.197 58.008V51.768C48.197 49.208 47.653 46.744 46.565 44.376C45.541 42.072 44.069 40.056 42.149 38.328ZM77.489 31.032H72.113C70.961 31.032 69.841 31.16 68.753 31.416V17.112H89.489L91.025 8.088H57.137V44.28L68.753 46.2C68.753 44.472 69.329 43.032 70.481 41.88C71.633 40.728 73.073 40.152 74.801 40.152C76.529 40.152 77.969 40.728 79.121 41.88C80.273 43.032 80.881 44.472 80.945 46.2V60.792C80.881 62.52 80.273 63.96 79.121 65.112C77.969 66.264 76.529 66.872 74.801 66.936C73.073 66.872 71.633 66.264 70.481 65.112C69.329 63.96 68.753 62.52 68.753 60.792L57.137 62.808C57.713 66.648 59.377 69.784 62.129 72.216C64.945 74.648 68.273 75.896 72.113 75.96H77.489C81.393 75.896 84.721 74.648 87.473 72.216C90.289 69.784 91.985 66.648 92.561 62.808L92.657 46.2C92.657 44.152 92.273 42.2 91.505 40.344C90.737 38.552 89.649 36.92 88.241 35.448C86.769 34.04 85.137 32.952 83.345 32.184C81.489 31.416 79.537 31.032 77.489 31.032Z" fill="black"/>
</svg>
