<svg width="106" height="88" viewBox="0 0 106 88" fill="none" xmlns="http://www.w3.org/2000/svg">
<path d="M34.114 31.032H28.738C27.586 31.032 26.466 31.16 25.378 31.416V17.112H46.114L47.65 8.088H13.762V44.28L25.378 46.2C25.378 44.472 25.954 43.032 27.106 41.88C28.258 40.728 29.698 40.152 31.426 40.152C33.154 40.152 34.594 40.728 35.746 41.88C36.898 43.032 37.506 44.472 37.57 46.2V60.792C37.506 62.52 36.898 63.96 35.746 65.112C34.594 66.264 33.154 66.872 31.426 66.936C29.698 66.872 28.258 66.264 27.106 65.112C25.954 63.96 25.378 62.52 25.378 60.792L13.762 62.808C14.338 66.648 16.002 69.784 18.754 72.216C21.57 74.648 24.898 75.896 28.738 75.96H34.114C38.018 75.896 41.346 74.648 44.098 72.216C46.914 69.784 48.61 66.648 49.186 62.808L49.282 46.2C49.282 44.152 48.898 42.2 48.13 40.344C47.362 38.552 46.274 36.92 44.866 35.448C43.394 34.04 41.762 32.952 39.97 32.184C38.114 31.416 36.162 31.032 34.114 31.032ZM78.364 31.032H72.988C71.836 31.032 70.716 31.16 69.628 31.416V17.112H90.364L91.9 8.088H58.012V44.28L69.628 46.2C69.628 44.472 70.204 43.032 71.356 41.88C72.508 40.728 73.948 40.152 75.676 40.152C77.404 40.152 78.844 40.728 79.996 41.88C81.148 43.032 81.756 44.472 81.82 46.2V60.792C81.756 62.52 81.148 63.96 79.996 65.112C78.844 66.264 77.404 66.872 75.676 66.936C73.948 66.872 72.508 66.264 71.356 65.112C70.204 63.96 69.628 62.52 69.628 60.792L58.012 62.808C58.588 66.648 60.252 69.784 63.004 72.216C65.82 74.648 69.148 75.896 72.988 75.96H78.364C82.268 75.896 85.596 74.648 88.348 72.216C91.164 69.784 92.86 66.648 93.436 62.808L93.532 46.2C93.532 44.152 93.148 42.2 92.38 40.344C91.612 38.552 90.524 36.92 89.116 35.448C87.644 34.04 86.012 32.952 84.22 32.184C82.364 31.416 80.412 31.032 78.364 31.032Z" fill="black"/>
</svg>
