<svg width="106" height="88" viewBox="0 0 106 88" fill="none" xmlns="http://www.w3.org/2000/svg">
<path d="M34.1609 31.032H28.7849C27.6329 31.032 26.5129 31.16 25.4249 31.416V17.112H46.1609L47.6969 8.088H13.8089V44.28L25.4249 46.2C25.4249 44.472 26.0009 43.032 27.1529 41.88C28.3049 40.728 29.7449 40.152 31.4729 40.152C33.2009 40.152 34.6409 40.728 35.7929 41.88C36.9449 43.032 37.5529 44.472 37.6169 46.2V60.792C37.5529 62.52 36.9449 63.96 35.7929 65.112C34.6409 66.264 33.2009 66.872 31.4729 66.936C29.7449 66.872 28.3049 66.264 27.1529 65.112C26.0009 63.96 25.4249 62.52 25.4249 60.792L13.8089 62.808C14.3849 66.648 16.0489 69.784 18.8009 72.216C21.6169 74.648 24.9449 75.896 28.7849 75.96H34.1609C38.0649 75.896 41.3929 74.648 44.1449 72.216C46.9609 69.784 48.6569 66.648 49.2329 62.808L49.3289 46.2C49.3289 44.152 48.9449 42.2 48.1769 40.344C47.4089 38.552 46.3209 36.92 44.9129 35.448C43.4409 34.04 41.8089 32.952 40.0169 32.184C38.1609 31.416 36.2089 31.032 34.1609 31.032ZM75.6269 7.032C70.5709 7.16 66.4429 8.952 63.2429 12.408C59.9789 15.864 58.2829 20.12 58.1549 25.176V58.488C58.2829 63.544 59.9789 67.672 63.2429 70.872C66.4429 74.136 70.5709 75.832 75.6269 75.96C80.6829 75.832 84.8109 74.104 88.0109 70.776C91.2749 67.384 92.9709 63.16 93.0989 58.104V24.888C92.9709 19.832 91.2749 15.608 88.0109 12.216C84.8109 8.888 80.6829 7.16 75.6269 7.032ZM81.7709 60.792C81.7069 62.52 81.0989 63.96 79.9469 65.112C78.7949 66.264 77.3549 66.872 75.6269 66.936C73.8989 66.872 72.4589 66.264 71.3069 65.112C70.1549 63.96 69.5469 62.52 69.4829 60.792V22.2C69.5469 20.472 70.1549 19.032 71.3069 17.88C72.4589 16.728 73.8989 16.12 75.6269 16.056C77.3549 16.12 78.7949 16.728 79.9469 17.88C81.0989 19.032 81.7069 20.472 81.7709 22.2V60.792Z" fill="black"/>
</svg>
