<svg width="106" height="88" viewBox="0 0 106 88" fill="none" xmlns="http://www.w3.org/2000/svg">
<path d="M33.8796 31.032H28.5036C27.3516 31.032 26.2316 31.16 25.1436 31.416V17.112H45.8796L47.4156 8.088H13.5276V44.28L25.1436 46.2C25.1436 44.472 25.7196 43.032 26.8716 41.88C28.0236 40.728 29.4636 40.152 31.1916 40.152C32.9196 40.152 34.3596 40.728 35.5116 41.88C36.6636 43.032 37.2716 44.472 37.3356 46.2V60.792C37.2716 62.52 36.6636 63.96 35.5116 65.112C34.3596 66.264 32.9196 66.872 31.1916 66.936C29.4636 66.872 28.0236 66.264 26.8716 65.112C25.7196 63.96 25.1436 62.52 25.1436 60.792L13.5276 62.808C14.1036 66.648 15.7676 69.784 18.5196 72.216C21.3356 74.648 24.6636 75.896 28.5036 75.96H33.8796C37.7836 75.896 41.1116 74.648 43.8636 72.216C46.6796 69.784 48.3756 66.648 48.9516 62.808L49.0476 46.2C49.0476 44.152 48.6636 42.2 47.8956 40.344C47.1276 38.552 46.0396 36.92 44.6316 35.448C43.1596 34.04 41.5276 32.952 39.7356 32.184C37.8796 31.416 35.9276 31.032 33.8796 31.032ZM93.3936 26.616V22.2C93.2656 17.912 91.7936 14.328 88.9776 11.448C86.0976 8.632 82.5136 7.16 78.2256 7.032H72.9456C68.6576 7.16 65.0736 8.632 62.1936 11.448C59.3776 14.328 57.9056 17.912 57.7776 22.2V26.616C57.7776 27.576 57.8096 28.312 57.8736 28.824C57.8736 29.336 57.8736 29.624 57.8736 29.688C58.0656 31.288 58.5456 32.824 59.3136 34.296C60.0176 35.768 60.9456 37.112 62.0976 38.328C60.6896 39.736 59.6336 41.368 58.9296 43.224C58.1616 45.016 57.7776 46.904 57.7776 48.888V59.736C57.7776 60.696 57.8096 61.432 57.8736 61.944C57.8736 62.456 57.8736 62.744 57.8736 62.808C58.4496 66.648 60.1136 69.784 62.8656 72.216C65.6816 74.648 69.0096 75.896 72.8496 75.96H78.2256C82.1296 75.896 85.4576 74.648 88.2096 72.216C91.0256 69.784 92.7216 66.648 93.2976 62.808C93.2976 62.808 93.2976 62.52 93.2976 61.944C93.3616 61.432 93.3936 60.696 93.3936 59.736V48.888C93.3936 46.904 93.0096 45.016 92.2416 43.224C91.5376 41.368 90.4816 39.736 89.0736 38.328C90.2256 37.112 91.1536 35.768 91.8576 34.296C92.5616 32.824 93.0416 31.288 93.2976 29.688C93.2976 29.624 93.2976 29.336 93.2976 28.824C93.3616 28.312 93.3936 27.576 93.3936 26.616ZM81.6816 60.792C81.6176 62.52 81.0096 63.96 79.8576 65.112C78.7056 66.264 77.2656 66.872 75.5376 66.936C73.8096 66.872 72.3696 66.264 71.2176 65.112C70.1296 63.96 69.5536 62.52 69.4896 60.792V48.888C69.5536 47.16 70.1616 45.752 71.3136 44.664C72.4656 43.512 73.9056 42.904 75.6336 42.84C77.2976 42.904 78.7056 43.512 79.8576 44.664C81.0096 45.752 81.6176 47.16 81.6816 48.888V60.792ZM81.6816 27.672C81.6176 29.4 81.0096 30.84 79.8576 31.992C78.7056 33.144 77.2656 33.752 75.5376 33.816C73.8096 33.752 72.3696 33.144 71.2176 31.992C70.1296 30.84 69.5536 29.4 69.4896 27.672V22.2C69.5536 20.472 70.1616 19.032 71.3136 17.88C72.4656 16.728 73.9056 16.12 75.6336 16.056C77.3616 16.12 78.7696 16.728 79.8576 17.88C81.0096 19.032 81.6176 20.472 81.6816 22.2V27.672Z" fill="black"/>
</svg>
