<svg width="106" height="88" viewBox="0 0 106 88" fill="none" xmlns="http://www.w3.org/2000/svg">
<path d="M33.9265 31.032H28.5505C27.3985 31.032 26.2785 31.16 25.1905 31.416V17.112H45.9265L47.4625 8.088H13.5745V44.28L25.1905 46.2C25.1905 44.472 25.7665 43.032 26.9185 41.88C28.0705 40.728 29.5105 40.152 31.2385 40.152C32.9665 40.152 34.4065 40.728 35.5585 41.88C36.7105 43.032 37.3185 44.472 37.3825 46.2V60.792C37.3185 62.52 36.7105 63.96 35.5585 65.112C34.4065 66.264 32.9665 66.872 31.2385 66.936C29.5105 66.872 28.0705 66.264 26.9185 65.112C25.7665 63.96 25.1905 62.52 25.1905 60.792L13.5745 62.808C14.1505 66.648 15.8145 69.784 18.5665 72.216C21.3825 74.648 24.7105 75.896 28.5505 75.96H33.9265C37.8305 75.896 41.1585 74.648 43.9105 72.216C46.7265 69.784 48.4225 66.648 48.9985 62.808L49.0945 46.2C49.0945 44.152 48.7105 42.2 47.9425 40.344C47.1745 38.552 46.0865 36.92 44.6785 35.448C43.2065 34.04 41.5745 32.952 39.7825 32.184C37.9265 31.416 35.9745 31.032 33.9265 31.032ZM78.1765 7.032H72.8005C68.8965 7.096 65.5685 8.344 62.8165 10.776C60.0005 13.208 58.3045 16.344 57.7285 20.184C57.7285 20.184 57.7285 20.472 57.7285 21.048C57.6645 21.56 57.6325 22.296 57.6325 23.256V34.008C57.7605 38.296 59.2325 41.88 62.0485 44.76C64.9285 47.576 68.5125 49.048 72.8005 49.176H78.0805C79.2965 49.176 80.4485 49.048 81.5365 48.792V60.792C81.4725 62.52 80.8965 63.96 79.8085 65.112C78.6565 66.264 77.2165 66.872 75.4885 66.936C73.7605 66.872 72.3205 66.264 71.1685 65.112C70.0165 63.96 69.4085 62.52 69.3445 60.792L57.7285 62.808C58.3045 66.648 60.0005 69.784 62.8165 72.216C65.5685 74.648 68.8965 75.896 72.8005 75.96H78.1765C82.4645 75.832 86.0165 74.36 88.8325 71.544C91.7125 68.664 93.1845 65.08 93.2485 60.792V22.2C93.2485 20.152 92.8645 18.2 92.0965 16.344C91.3285 14.552 90.2405 12.92 88.8325 11.448C87.4245 10.04 85.7925 8.952 83.9365 8.184C82.0805 7.416 80.1605 7.032 78.1765 7.032ZM81.5365 22.2V34.008C81.4725 35.736 80.8645 37.176 79.7125 38.328C78.5605 39.48 77.1525 40.088 75.4885 40.152C73.7605 40.088 72.3205 39.48 71.1685 38.328C70.0165 37.176 69.4085 35.736 69.3445 34.008V22.2C69.4085 20.472 70.0165 19.032 71.1685 17.88C72.3205 16.728 73.7605 16.12 75.4885 16.056C77.2165 16.12 78.6565 16.728 79.8085 17.88C80.8965 19.032 81.4725 20.472 81.5365 22.2Z" fill="black"/>
</svg>
