<svg width="106" height="88" viewBox="0 0 106 88" fill="none" xmlns="http://www.w3.org/2000/svg">
<path d="M33.527 33.816H28.151C26.999 33.816 25.847 33.944 24.695 34.2V22.2C24.759 20.472 25.367 19.032 26.519 17.88C27.671 16.728 29.111 16.12 30.839 16.056C32.567 16.12 34.007 16.728 35.159 17.88C36.247 19.032 36.823 20.472 36.887 22.2L48.503 20.184C47.927 16.344 46.263 13.208 43.511 10.776C40.695 8.344 37.367 7.096 33.527 7.032H28.151C23.863 7.16 20.279 8.632 17.399 11.448C14.583 14.328 13.111 17.912 12.983 22.2V60.792C13.111 65.08 14.583 68.664 17.399 71.544C20.279 74.36 23.863 75.832 28.151 75.96H33.527C37.367 75.896 40.695 74.648 43.511 72.216C46.263 69.784 47.927 66.648 48.503 62.808C48.503 62.808 48.535 62.52 48.599 61.944C48.599 61.432 48.599 60.696 48.599 59.736V48.888C48.599 46.904 48.215 44.984 47.447 43.128C46.679 41.272 45.591 39.64 44.183 38.232C42.775 36.824 41.143 35.736 39.287 34.968C37.431 34.2 35.511 33.816 33.527 33.816ZM36.887 60.792C36.823 62.52 36.247 63.96 35.159 65.112C34.007 66.264 32.567 66.872 30.839 66.936C29.111 66.872 27.671 66.264 26.519 65.112C25.367 63.96 24.759 62.52 24.695 60.792V48.888C24.759 47.16 25.367 45.752 26.519 44.664C27.671 43.512 29.111 42.904 30.839 42.84C32.567 42.904 34.007 43.512 35.159 44.664C36.247 45.752 36.823 47.16 36.887 48.888V60.792ZM77.864 7.032H72.488C68.584 7.096 65.256 8.344 62.504 10.776C59.688 13.208 57.992 16.344 57.416 20.184C57.416 20.184 57.416 20.472 57.416 21.048C57.352 21.56 57.32 22.296 57.32 23.256V34.008C57.448 38.296 58.92 41.88 61.736 44.76C64.616 47.576 68.2 49.048 72.488 49.176H77.768C78.984 49.176 80.136 49.048 81.224 48.792V60.792C81.16 62.52 80.584 63.96 79.496 65.112C78.344 66.264 76.904 66.872 75.176 66.936C73.448 66.872 72.008 66.264 70.856 65.112C69.704 63.96 69.096 62.52 69.032 60.792L57.416 62.808C57.992 66.648 59.688 69.784 62.504 72.216C65.256 74.648 68.584 75.896 72.488 75.96H77.864C82.152 75.832 85.704 74.36 88.52 71.544C91.4 68.664 92.872 65.08 92.936 60.792V22.2C92.936 20.152 92.552 18.2 91.784 16.344C91.016 14.552 89.928 12.92 88.52 11.448C87.112 10.04 85.48 8.952 83.624 8.184C81.768 7.416 79.848 7.032 77.864 7.032ZM81.224 22.2V34.008C81.16 35.736 80.552 37.176 79.4 38.328C78.248 39.48 76.84 40.088 75.176 40.152C73.448 40.088 72.008 39.48 70.856 38.328C69.704 37.176 69.096 35.736 69.032 34.008V22.2C69.096 20.472 69.704 19.032 70.856 17.88C72.008 16.728 73.448 16.12 75.176 16.056C76.904 16.12 78.344 16.728 79.496 17.88C80.584 19.032 81.16 20.472 81.224 22.2Z" fill="black"/>
</svg>
