<svg width="106" height="88" viewBox="0 0 106 88" fill="none" xmlns="http://www.w3.org/2000/svg">
<path d="M14.1594 8.088L15.6954 17.112H35.0874L25.3914 74.904H37.1034L48.3354 8.088H14.1594ZM92.0499 26.616V22.2C91.9219 17.912 90.4499 14.328 87.6339 11.448C84.7539 8.632 81.1699 7.16 76.8819 7.032H71.6019C67.3139 7.16 63.7299 8.632 60.8499 11.448C58.0339 14.328 56.5619 17.912 56.4339 22.2V26.616C56.4339 27.576 56.4659 28.312 56.5299 28.824C56.5299 29.336 56.5299 29.624 56.5299 29.688C56.7219 31.288 57.2019 32.824 57.9699 34.296C58.6739 35.768 59.6019 37.112 60.7539 38.328C59.3459 39.736 58.2899 41.368 57.5859 43.224C56.8179 45.016 56.4339 46.904 56.4339 48.888V59.736C56.4339 60.696 56.4659 61.432 56.5299 61.944C56.5299 62.456 56.5299 62.744 56.5299 62.808C57.1059 66.648 58.7699 69.784 61.5219 72.216C64.3379 74.648 67.6659 75.896 71.5059 75.96H76.8819C80.7859 75.896 84.1139 74.648 86.8659 72.216C89.6819 69.784 91.3779 66.648 91.9539 62.808C91.9539 62.808 91.9539 62.52 91.9539 61.944C92.0179 61.432 92.0499 60.696 92.0499 59.736V48.888C92.0499 46.904 91.6659 45.016 90.8979 43.224C90.1939 41.368 89.1379 39.736 87.7299 38.328C88.8819 37.112 89.8099 35.768 90.5139 34.296C91.2179 32.824 91.6979 31.288 91.9539 29.688C91.9539 29.624 91.9539 29.336 91.9539 28.824C92.0179 28.312 92.0499 27.576 92.0499 26.616ZM80.3379 60.792C80.2739 62.52 79.6659 63.96 78.5139 65.112C77.3619 66.264 75.9219 66.872 74.1939 66.936C72.4659 66.872 71.0259 66.264 69.8739 65.112C68.7859 63.96 68.2099 62.52 68.1459 60.792V48.888C68.2099 47.16 68.8179 45.752 69.9699 44.664C71.1219 43.512 72.5619 42.904 74.2899 42.84C75.9539 42.904 77.3619 43.512 78.5139 44.664C79.6659 45.752 80.2739 47.16 80.3379 48.888V60.792ZM80.3379 27.672C80.2739 29.4 79.6659 30.84 78.5139 31.992C77.3619 33.144 75.9219 33.752 74.1939 33.816C72.4659 33.752 71.0259 33.144 69.8739 31.992C68.7859 30.84 68.2099 29.4 68.1459 27.672V22.2C68.2099 20.472 68.8179 19.032 69.9699 17.88C71.1219 16.728 72.5619 16.12 74.2899 16.056C76.0179 16.12 77.4259 16.728 78.5139 17.88C79.6659 19.032 80.2739 20.472 80.3379 22.2V27.672Z" fill="black"/>
</svg>
