<svg width="106" height="88" viewBox="0 0 106 88" fill="none" xmlns="http://www.w3.org/2000/svg">
<path opacity="0.88" d="M48.4093 26.616V22.2C48.2813 17.912 46.8093 14.328 43.9933 11.448C41.1133 8.632 37.5293 7.16 33.2413 7.032H27.9613C23.6733 7.16 20.0893 8.632 17.2093 11.448C14.3933 14.328 12.9213 17.912 12.7933 22.2V26.616C12.7933 27.576 12.8253 28.312 12.8893 28.824C12.8893 29.336 12.8893 29.624 12.8893 29.688C13.0813 31.288 13.5613 32.824 14.3293 34.296C15.0333 35.768 15.9613 37.112 17.1133 38.328C15.7053 39.736 14.6493 41.368 13.9453 43.224C13.1773 45.016 12.7933 46.904 12.7933 48.888V59.736C12.7933 60.696 12.8253 61.432 12.8893 61.944C12.8893 62.456 12.8893 62.744 12.8893 62.808C13.4653 66.648 15.1293 69.784 17.8813 72.216C20.6973 74.648 24.0253 75.896 27.8653 75.96H33.2413C37.1453 75.896 40.4733 74.648 43.2253 72.216C46.0413 69.784 47.7373 66.648 48.3133 62.808C48.3133 62.808 48.3133 62.52 48.3133 61.944C48.3773 61.432 48.4093 60.696 48.4093 59.736V48.888C48.4093 46.904 48.0253 45.016 47.2573 43.224C46.5533 41.368 45.4973 39.736 44.0893 38.328C45.2413 37.112 46.1693 35.768 46.8733 34.296C47.5773 32.824 48.0573 31.288 48.3133 29.688C48.3133 29.624 48.3133 29.336 48.3133 28.824C48.3773 28.312 48.4093 27.576 48.4093 26.616ZM36.6973 60.792C36.6333 62.52 36.0253 63.96 34.8733 65.112C33.7213 66.264 32.2813 66.872 30.5533 66.936C28.8253 66.872 27.3853 66.264 26.2333 65.112C25.1453 63.96 24.5693 62.52 24.5053 60.792V48.888C24.5693 47.16 25.1773 45.752 26.3293 44.664C27.4813 43.512 28.9213 42.904 30.6493 42.84C32.3133 42.904 33.7213 43.512 34.8733 44.664C36.0253 45.752 36.6333 47.16 36.6973 48.888V60.792ZM36.6973 27.672C36.6333 29.4 36.0253 30.84 34.8733 31.992C33.7213 33.144 32.2813 33.752 30.5533 33.816C28.8253 33.752 27.3853 33.144 26.2333 31.992C25.1453 30.84 24.5693 29.4 24.5053 27.672V22.2C24.5693 20.472 25.1773 19.032 26.3293 17.88C27.4813 16.728 28.9213 16.12 30.6493 16.056C32.3773 16.12 33.7853 16.728 34.8733 17.88C36.0253 19.032 36.6333 20.472 36.6973 22.2V27.672ZM93.128 26.616V22.2C93 17.912 91.528 14.328 88.712 11.448C85.832 8.632 82.248 7.16 77.96 7.032H72.68C68.392 7.16 64.808 8.632 61.928 11.448C59.112 14.328 57.64 17.912 57.512 22.2V26.616C57.512 27.576 57.544 28.312 57.608 28.824C57.608 29.336 57.608 29.624 57.608 29.688C57.8 31.288 58.28 32.824 59.048 34.296C59.752 35.768 60.68 37.112 61.832 38.328C60.424 39.736 59.368 41.368 58.664 43.224C57.896 45.016 57.512 46.904 57.512 48.888V59.736C57.512 60.696 57.544 61.432 57.608 61.944C57.608 62.456 57.608 62.744 57.608 62.808C58.184 66.648 59.848 69.784 62.6 72.216C65.416 74.648 68.744 75.896 72.584 75.96H77.96C81.864 75.896 85.192 74.648 87.944 72.216C90.76 69.784 92.456 66.648 93.032 62.808C93.032 62.808 93.032 62.52 93.032 61.944C93.096 61.432 93.128 60.696 93.128 59.736V48.888C93.128 46.904 92.744 45.016 91.976 43.224C91.272 41.368 90.216 39.736 88.808 38.328C89.96 37.112 90.888 35.768 91.592 34.296C92.296 32.824 92.776 31.288 93.032 29.688C93.032 29.624 93.032 29.336 93.032 28.824C93.096 28.312 93.128 27.576 93.128 26.616ZM81.416 60.792C81.352 62.52 80.744 63.96 79.592 65.112C78.44 66.264 77 66.872 75.272 66.936C73.544 66.872 72.104 66.264 70.952 65.112C69.864 63.96 69.288 62.52 69.224 60.792V48.888C69.288 47.16 69.896 45.752 71.048 44.664C72.2 43.512 73.64 42.904 75.368 42.84C77.032 42.904 78.44 43.512 79.592 44.664C80.744 45.752 81.352 47.16 81.416 48.888V60.792ZM81.416 27.672C81.352 29.4 80.744 30.84 79.592 31.992C78.44 33.144 77 33.752 75.272 33.816C73.544 33.752 72.104 33.144 70.952 31.992C69.864 30.84 69.288 29.4 69.224 27.672V22.2C69.288 20.472 69.896 19.032 71.048 17.88C72.2 16.728 73.64 16.12 75.368 16.056C77.096 16.12 78.504 16.728 79.592 17.88C80.744 19.032 81.352 20.472 81.416 22.2V27.672Z" fill="black"/>
</svg>
