<svg width="106" height="88" viewBox="0 0 106 88" fill="none" xmlns="http://www.w3.org/2000/svg">
<path opacity="0.88" d="M33.239 7.032H27.863C23.959 7.096 20.631 8.344 17.879 10.776C15.063 13.208 13.367 16.344 12.791 20.184C12.791 20.184 12.791 20.472 12.791 21.048C12.727 21.56 12.695 22.296 12.695 23.256V34.008C12.823 38.296 14.295 41.88 17.111 44.76C19.991 47.576 23.575 49.048 27.863 49.176H33.143C34.359 49.176 35.511 49.048 36.599 48.792V60.792C36.535 62.52 35.959 63.96 34.871 65.112C33.719 66.264 32.279 66.872 30.551 66.936C28.823 66.872 27.383 66.264 26.231 65.112C25.079 63.96 24.471 62.52 24.407 60.792L12.791 62.808C13.367 66.648 15.063 69.784 17.879 72.216C20.631 74.648 23.959 75.896 27.863 75.96H33.239C37.527 75.832 41.079 74.36 43.895 71.544C46.775 68.664 48.247 65.08 48.311 60.792V22.2C48.311 20.152 47.927 18.2 47.159 16.344C46.391 14.552 45.303 12.92 43.895 11.448C42.487 10.04 40.855 8.952 38.999 8.184C37.143 7.416 35.223 7.032 33.239 7.032ZM36.599 22.2V34.008C36.535 35.736 35.927 37.176 34.775 38.328C33.623 39.48 32.215 40.088 30.551 40.152C28.823 40.088 27.383 39.48 26.231 38.328C25.079 37.176 24.471 35.736 24.407 34.008V22.2C24.471 20.472 25.079 19.032 26.231 17.88C27.383 16.728 28.823 16.12 30.551 16.056C32.279 16.12 33.719 16.728 34.871 17.88C35.959 19.032 36.535 20.472 36.599 22.2ZM77.864 7.032H72.488C68.584 7.096 65.256 8.344 62.504 10.776C59.688 13.208 57.992 16.344 57.416 20.184C57.416 20.184 57.416 20.472 57.416 21.048C57.352 21.56 57.32 22.296 57.32 23.256V34.008C57.448 38.296 58.92 41.88 61.736 44.76C64.616 47.576 68.2 49.048 72.488 49.176H77.768C78.984 49.176 80.136 49.048 81.224 48.792V60.792C81.16 62.52 80.584 63.96 79.496 65.112C78.344 66.264 76.904 66.872 75.176 66.936C73.448 66.872 72.008 66.264 70.856 65.112C69.704 63.96 69.096 62.52 69.032 60.792L57.416 62.808C57.992 66.648 59.688 69.784 62.504 72.216C65.256 74.648 68.584 75.896 72.488 75.96H77.864C82.152 75.832 85.704 74.36 88.52 71.544C91.4 68.664 92.872 65.08 92.936 60.792V22.2C92.936 20.152 92.552 18.2 91.784 16.344C91.016 14.552 89.928 12.92 88.52 11.448C87.112 10.04 85.48 8.952 83.624 8.184C81.768 7.416 79.848 7.032 77.864 7.032ZM81.224 22.2V34.008C81.16 35.736 80.552 37.176 79.4 38.328C78.248 39.48 76.84 40.088 75.176 40.152C73.448 40.088 72.008 39.48 70.856 38.328C69.704 37.176 69.096 35.736 69.032 34.008V22.2C69.096 20.472 69.704 19.032 70.856 17.88C72.008 16.728 73.448 16.12 75.176 16.056C76.904 16.12 78.344 16.728 79.496 17.88C80.584 19.032 81.16 20.472 81.224 22.2Z" fill="black"/>
</svg>
