<svg width="106" height="88" viewBox="0 0 106 88" fill="none" xmlns="http://www.w3.org/2000/svg">
<path opacity="0.88" d="M33.9734 7.032H28.5974C24.6934 7.096 21.3654 8.344 18.6134 10.776C15.7974 13.208 14.1014 16.344 13.5254 20.184C13.5254 20.184 13.5254 20.472 13.5254 21.048C13.4614 21.56 13.4294 22.296 13.4294 23.256V34.008C13.5574 38.296 15.0294 41.88 17.8454 44.76C20.7254 47.576 24.3094 49.048 28.5974 49.176H33.8774C35.0934 49.176 36.2454 49.048 37.3334 48.792V60.792C37.2694 62.52 36.6934 63.96 35.6054 65.112C34.4534 66.264 33.0134 66.872 31.2854 66.936C29.5574 66.872 28.1174 66.264 26.9654 65.112C25.8134 63.96 25.2054 62.52 25.1414 60.792L13.5254 62.808C14.1014 66.648 15.7974 69.784 18.6134 72.216C21.3654 74.648 24.6934 75.896 28.5974 75.96H33.9734C38.2614 75.832 41.8134 74.36 44.6294 71.544C47.5094 68.664 48.9814 65.08 49.0454 60.792V22.2C49.0454 20.152 48.6614 18.2 47.8934 16.344C47.1254 14.552 46.0374 12.92 44.6294 11.448C43.2214 10.04 41.5894 8.952 39.7334 8.184C37.8774 7.416 35.9574 7.032 33.9734 7.032ZM37.3334 22.2V34.008C37.2694 35.736 36.6614 37.176 35.5094 38.328C34.3574 39.48 32.9494 40.088 31.2854 40.152C29.5574 40.088 28.1174 39.48 26.9654 38.328C25.8134 37.176 25.2054 35.736 25.1414 34.008V22.2C25.2054 20.472 25.8134 19.032 26.9654 17.88C28.1174 16.728 29.5574 16.12 31.2854 16.056C33.0134 16.12 34.4534 16.728 35.6054 17.88C36.6934 19.032 37.2694 20.472 37.3334 22.2ZM75.8144 7.032C70.7584 7.16 66.6304 8.952 63.4304 12.408C60.1664 15.864 58.4704 20.12 58.3424 25.176V58.488C58.4704 63.544 60.1664 67.672 63.4304 70.872C66.6304 74.136 70.7584 75.832 75.8144 75.96C80.8704 75.832 84.9984 74.104 88.1984 70.776C91.4624 67.384 93.1584 63.16 93.2864 58.104V24.888C93.1584 19.832 91.4624 15.608 88.1984 12.216C84.9984 8.888 80.8704 7.16 75.8144 7.032ZM81.9584 60.792C81.8944 62.52 81.2864 63.96 80.1344 65.112C78.9824 66.264 77.5424 66.872 75.8144 66.936C74.0864 66.872 72.6464 66.264 71.4944 65.112C70.3424 63.96 69.7344 62.52 69.6704 60.792V22.2C69.7344 20.472 70.3424 19.032 71.4944 17.88C72.6464 16.728 74.0864 16.12 75.8144 16.056C77.5424 16.12 78.9824 16.728 80.1344 17.88C81.2864 19.032 81.8944 20.472 81.9584 22.2V60.792Z" fill="black"/>
</svg>
