<svg width="106" height="88" viewBox="0 0 106 88" fill="none" xmlns="http://www.w3.org/2000/svg">
<path opacity="0.88" d="M34.2703 7.032H28.8943C24.9903 7.096 21.6623 8.344 18.9103 10.776C16.0943 13.208 14.3983 16.344 13.8223 20.184C13.8223 20.184 13.8223 20.472 13.8223 21.048C13.7583 21.56 13.7263 22.296 13.7263 23.256V34.008C13.8543 38.296 15.3263 41.88 18.1423 44.76C21.0223 47.576 24.6063 49.048 28.8943 49.176H34.1743C35.3903 49.176 36.5423 49.048 37.6302 48.792V60.792C37.5663 62.52 36.9903 63.96 35.9023 65.112C34.7503 66.264 33.3103 66.872 31.5823 66.936C29.8543 66.872 28.4143 66.264 27.2623 65.112C26.1103 63.96 25.5023 62.52 25.4383 60.792L13.8223 62.808C14.3983 66.648 16.0943 69.784 18.9103 72.216C21.6623 74.648 24.9903 75.896 28.8943 75.96H34.2703C38.5583 75.832 42.1103 74.36 44.9263 71.544C47.8063 68.664 49.2783 65.08 49.3423 60.792V22.2C49.3423 20.152 48.9583 18.2 48.1903 16.344C47.4223 14.552 46.3343 12.92 44.9263 11.448C43.5183 10.04 41.8863 8.952 40.0303 8.184C38.1743 7.416 36.2543 7.032 34.2703 7.032ZM37.6302 22.2V34.008C37.5663 35.736 36.9583 37.176 35.8063 38.328C34.6543 39.48 33.2463 40.088 31.5823 40.152C29.8543 40.088 28.4143 39.48 27.2623 38.328C26.1103 37.176 25.5023 35.736 25.4383 34.008V22.2C25.5023 20.472 26.1103 19.032 27.2623 17.88C28.4143 16.728 29.8543 16.12 31.5823 16.056C33.3103 16.12 34.7503 16.728 35.9023 17.88C36.9903 19.032 37.5663 20.472 37.6302 22.2ZM58.8313 8.088L60.3672 17.112H79.7593L70.0633 74.904H81.7753L93.0073 8.088H58.8313Z" fill="black"/>
</svg>
