<svg width="250" height="250" viewBox="0 0 250 250" fill="none" xmlns="http://www.w3.org/2000/svg">
<g clip-path="url(#clip0_436_396)">
<path d="M58.7783 71.904V76.656C62.9543 76.728 66.2483 77.412 68.6603 78.708C71.0723 80.004 72.7823 81.732 73.7903 83.892C74.7983 86.016 75.3023 88.392 75.3023 91.02C75.3023 92.748 75.0323 94.476 74.4923 96.204C73.9883 97.896 73.1063 99.444 71.8463 100.848C70.5863 102.216 68.8943 103.332 66.7703 104.196C64.6463 105.06 61.9823 105.528 58.7783 105.6V111.54H53.9723V105.6C50.6963 105.528 47.9783 105.06 45.8183 104.196C43.6943 103.296 42.0203 102.144 40.7963 100.74C39.5723 99.3 38.7083 97.734 38.2043 96.042C37.7003 94.35 37.4483 92.676 37.4483 91.02C37.4483 89.112 37.7183 87.312 38.2583 85.62C38.8343 83.892 39.7523 82.38 41.0123 81.084C42.3083 79.752 44.0183 78.69 46.1423 77.898C48.2663 77.106 50.8763 76.692 53.9723 76.656V71.904H58.7783ZM53.9723 80.76C51.0923 80.832 48.7883 81.3 47.0603 82.164C45.3683 83.028 44.1623 84.216 43.4423 85.728C42.7223 87.204 42.3623 88.95 42.3623 90.966C42.3623 93.09 42.7583 94.944 43.5503 96.528C44.3783 98.076 45.6383 99.282 47.3303 100.146C49.0583 101.01 51.2723 101.496 53.9723 101.604V80.76ZM58.7783 101.604C61.5503 101.496 63.7823 100.992 65.4743 100.092C67.2023 99.192 68.4443 97.968 69.2003 96.42C69.9923 94.836 70.3883 93.018 70.3883 90.966C70.3883 88.914 70.0283 87.15 69.3083 85.674C68.5883 84.162 67.3823 82.992 65.6903 82.164C63.9983 81.3 61.6943 80.832 58.7783 80.76V101.604ZM107.525 111L102.881 99.066H87.5987L83.0087 111H78.0947L93.1607 72.282H97.5347L112.547 111H107.525ZM97.1027 83.082C96.9947 82.794 96.8147 82.272 96.5627 81.516C96.3107 80.76 96.0587 79.986 95.8067 79.194C95.5907 78.366 95.4107 77.736 95.2667 77.304C95.0867 78.024 94.8887 78.762 94.6727 79.518C94.4927 80.238 94.2947 80.904 94.0787 81.516C93.8987 82.128 93.7367 82.65 93.5927 83.082L89.2187 94.746H101.423L97.1027 83.082ZM147.305 111H142.445V93.018H122.681V111H117.821V72.444H122.681V88.752H142.445V72.444H147.305V111ZM182.038 111L177.394 99.066H162.112L157.522 111H152.608L167.674 72.282H172.048L187.06 111H182.038ZM171.616 83.082C171.508 82.794 171.328 82.272 171.076 81.516C170.824 80.76 170.572 79.986 170.32 79.194C170.104 78.366 169.924 77.736 169.78 77.304C169.6 78.024 169.402 78.762 169.186 79.518C169.006 80.238 168.808 80.904 168.592 81.516C168.412 82.128 168.25 82.65 168.106 83.082L163.732 94.746H175.936L171.616 83.082ZM200.742 111H195.882V76.71H183.84V72.444H212.73V76.71H200.742V111ZM44.7972 176L40.1532 164.066H24.8712L20.2812 176H15.3672L30.4332 137.282H34.8072L49.8192 176H44.7972ZM34.3752 148.082C34.2672 147.794 34.0872 147.272 33.8352 146.516C33.5832 145.76 33.3312 144.986 33.0792 144.194C32.8632 143.366 32.6832 142.736 32.5392 142.304C32.3592 143.024 32.1612 143.762 31.9452 144.518C31.7652 145.238 31.5672 145.904 31.3512 146.516C31.1712 147.128 31.0092 147.65 30.8652 148.082L26.4912 159.746H38.6952L34.3752 148.082ZM83.2275 176H77.3955L59.9535 156.452V176H55.0935V137.444H59.9535V156.128L76.9635 137.444H82.4715L65.7315 156.182L83.2275 176ZM98.6803 137.444C103.72 137.444 107.392 138.434 109.696 140.414C112 142.394 113.152 145.184 113.152 148.784C113.152 150.368 112.882 151.898 112.342 153.374C111.838 154.814 110.992 156.11 109.804 157.262C108.616 158.414 107.032 159.332 105.052 160.016C103.072 160.664 100.642 160.988 97.7623 160.988H93.3343V176H88.4743V137.444H98.6803ZM98.2483 141.602H93.3343V156.83H97.2223C99.6703 156.83 101.704 156.578 103.324 156.074C104.944 155.534 106.15 154.688 106.942 153.536C107.734 152.384 108.13 150.872 108.13 149C108.13 146.516 107.338 144.662 105.754 143.438C104.17 142.214 101.668 141.602 98.2483 141.602ZM154.812 156.668C154.812 159.656 154.434 162.374 153.678 164.822C152.922 167.234 151.788 169.322 150.276 171.086C148.8 172.85 146.946 174.2 144.714 175.136C142.518 176.072 139.962 176.54 137.046 176.54C134.022 176.54 131.394 176.072 129.162 175.136C126.93 174.164 125.076 172.814 123.6 171.086C122.124 169.322 121.026 167.216 120.306 164.768C119.586 162.32 119.226 159.602 119.226 156.614C119.226 152.654 119.874 149.198 121.17 146.246C122.466 143.294 124.428 140.99 127.056 139.334C129.72 137.678 133.068 136.85 137.1 136.85C140.952 136.85 144.192 137.678 146.82 139.334C149.448 140.954 151.428 143.258 152.76 146.246C154.128 149.198 154.812 152.672 154.812 156.668ZM124.356 156.668C124.356 159.908 124.806 162.698 125.706 165.038C126.606 167.378 127.992 169.178 129.864 170.438C131.772 171.698 134.166 172.328 137.046 172.328C139.962 172.328 142.338 171.698 144.174 170.438C146.046 169.178 147.432 167.378 148.332 165.038C149.232 162.698 149.682 159.908 149.682 156.668C149.682 151.808 148.674 148.01 146.658 145.274C144.642 142.502 141.456 141.116 137.1 141.116C134.184 141.116 131.772 141.746 129.864 143.006C127.992 144.23 126.606 146.012 125.706 148.352C124.806 150.656 124.356 153.428 124.356 156.668ZM192.841 176H187.981V158.018H168.217V176H163.357V137.444H168.217V153.752H187.981V137.444H192.841V176ZM227.575 176L222.931 164.066H207.649L203.059 176H198.145L213.211 137.282H217.585L232.597 176H227.575ZM217.153 148.082C217.045 147.794 216.865 147.272 216.613 146.516C216.361 145.76 216.109 144.986 215.857 144.194C215.641 143.366 215.461 142.736 215.317 142.304C215.137 143.024 214.939 143.762 214.723 144.518C214.543 145.238 214.345 145.904 214.129 146.516C213.949 147.128 213.787 147.65 213.643 148.082L209.269 159.746H221.473L217.153 148.082Z" fill="black"/>
</g>
<defs>
<clipPath id="clip0_436_396">
<rect width="250" height="250" fill="white"/>
</clipPath>
</defs>
</svg>
